# xmcd
#
# Track frame offsets: 
#        150
#        11202
#        24702
#        36910
#        50940
#        65500
#        78417
#        92087
#        102747
#        112795
#        130922
#        141400
#        157812
#
# Disc length: 2276 seconds
#
# Revision: 2
# Processed by: cddbd v1.5.1PL2 Copyright (c) Steve Scherf et al.
# Submitted via: ExactAudioCopy v0.95b4
#
DISCID=b508e20d
DTITLE=Pena Branca e Xavantinho - Ribeirão Encheu
DYEAR=1900
DGENRE=Folk
TTITLE0=Ribeirão Encheu
TTITLE1=Cantiga das Rosas
TTITLE2=Estrelada
TTITLE3=Oração de Camponês
TTITLE4=No Dia Em Que Eu Vim Me Embora
TTITLE5=Sodade Meu Bem Sodade
TTITLE6=Fiquem Com Deus
TTITLE7=Velho Catireiro
TTITLE8=Congo - Joga na Bandeira
TTITLE9=A Mulher e o Mar
TTITLE10=Trem das Gerais
TTITLE11=Chaleira do Alto da Poeira
TTITLE12=Luar do Sert o
EXTD=
EXTT0=Adapt. Tavinho Moura\n
EXTT1=Moniz\n
EXTT2=Milton Nascimento - M rcio Borges\n
EXTT3=Xavantinho\n
EXTT4=Caetano Veloso - Gilberto Gil\n
EXTT5=Z  do Norte\n
EXTT6=Dominguinhos - Oliveira\n
EXTT7=Pena Branca e Xavantinho\n
EXTT8=Tadeu Franco - Marco Ant nio Martins\nWagner Tiso\n
EXTT9=Jota Maranh o - Paulo C sar Pinheiro\n
EXTT10=Xavantinho\n
EXTT11=Tavinho Moura - Fernando Brant\n
EXTT12=Catulo da Paix o Cearense - Jo o \nPernambuco\n
PLAYORDER=
